<svg width="0" height="0" class="hidden">
  <symbol xmlns="http://www.w3.org/2000/svg" viewBox="0 0 408.788 408.788" id="facebook">
    <path d="M353.701 0H55.087C24.665 0 .002 24.662.002 55.085v298.616c0 30.423 24.662 55.085 55.085 55.085h147.275l.251-146.078h-37.951a8.954 8.954 0 0 1-8.954-8.92l-.182-47.087a8.955 8.955 0 0 1 8.955-8.989h37.882v-45.498c0-52.8 32.247-81.55 79.348-81.55h38.65a8.955 8.955 0 0 1 8.955 8.955v39.704a8.955 8.955 0 0 1-8.95 8.955l-23.719.011c-25.615 0-30.575 12.172-30.575 30.035v39.389h56.285c5.363 0 9.524 4.683 8.892 10.009l-5.581 47.087a8.955 8.955 0 0 1-8.892 7.901h-50.453l-.251 146.078h87.631c30.422 0 55.084-24.662 55.084-55.084V55.085C408.786 24.662 384.124 0 353.701 0z"
      fill="#475993"></path>
  </symbol>
  <symbol xmlns="http://www.w3.org/2000/svg" viewBox="0 0 128 128" id="instagram">
    <path clip-rule="evenodd" fill="none" fill-rule="evenodd" d="M0 0h128v128H0z"></path>
    <path clip-rule="evenodd" d="M105.843 29.837a7.68 7.68 0 1 1-15.36 0 7.68 7.68 0 0 1 15.36 0zM64 85.333c-11.782 0-21.333-9.551-21.333-21.333 0-11.782 9.551-21.333 21.333-21.333 11.782 0 21.333 9.551 21.333 21.333 0 11.782-9.551 21.333-21.333 21.333zm0-54.198c-18.151 0-32.865 14.714-32.865 32.865 0 18.151 14.714 32.865 32.865 32.865 18.151 0 32.865-14.714 32.865-32.865 0-18.151-14.714-32.865-32.865-32.865zm0-19.603c17.089 0 19.113.065 25.861.373 6.24.285 9.629 1.327 11.884 2.204 2.987 1.161 5.119 2.548 7.359 4.788 2.24 2.239 3.627 4.371 4.788 7.359.876 2.255 1.919 5.644 2.204 11.884.308 6.749.373 8.773.373 25.862s-.065 19.113-.373 25.861c-.285 6.24-1.327 9.629-2.204 11.884-1.161 2.987-2.548 5.119-4.788 7.359-2.239 2.24-4.371 3.627-7.359 4.788-2.255.876-5.644 1.919-11.884 2.204-6.748.308-8.772.373-25.861.373-17.09 0-19.114-.065-25.862-.373-6.24-.285-9.629-1.327-11.884-2.204-2.987-1.161-5.119-2.548-7.359-4.788-2.239-2.239-3.627-4.371-4.788-7.359-.876-2.255-1.919-5.644-2.204-11.884-.308-6.749-.373-8.773-.373-25.861 0-17.089.065-19.113.373-25.862.285-6.24 1.327-9.629 2.204-11.884 1.161-2.987 2.548-5.119 4.788-7.359 2.239-2.24 4.371-3.627 7.359-4.788 2.255-.876 5.644-1.919 11.884-2.204 6.749-.308 8.773-.373 25.862-.373zM64 0C46.619 0 44.439.074 37.613.385 30.801.696 26.148 1.778 22.078 3.36c-4.209 1.635-7.778 3.824-11.336 7.382C7.184 14.3 4.995 17.869 3.36 22.078 1.778 26.149.696 30.801.385 37.613.074 44.439 0 46.619 0 64s.074 19.561.385 26.387c.311 6.812 1.393 11.464 2.975 15.535 1.635 4.209 3.824 7.778 7.382 11.336 3.558 3.558 7.127 5.746 11.336 7.382 4.071 1.582 8.723 2.664 15.535 2.975 6.826.311 9.006.385 26.387.385s19.561-.074 26.387-.385c6.812-.311 11.464-1.393 15.535-2.975 4.209-1.636 7.778-3.824 11.336-7.382 3.558-3.558 5.746-7.127 7.382-11.336 1.582-4.071 2.664-8.723 2.975-15.535.311-6.826.385-9.006.385-26.387s-.074-19.561-.385-26.387c-.311-6.812-1.393-11.464-2.975-15.535-1.636-4.209-3.824-7.778-7.382-11.336-3.558-3.558-7.127-5.746-11.336-7.382C101.851 1.778 97.199.696 90.387.385 83.561.074 81.381 0 64 0z"
      fill="url(#a)" fill-rule="evenodd"></path>
    <radialGradient cx="19.111" cy="128.444" gradientUnits="userSpaceOnUse" id="a" r="163.552">
      <stop offset="0" stop-color="#ffb140"></stop>
      <stop offset=".256" stop-color="#ff5445"></stop>
      <stop offset=".599" stop-color="#fc2b82"></stop>
      <stop offset="1" stop-color="#8e40b7"></stop>
    </radialGradient>
  </symbol>
  <symbol xmlns="http://www.w3.org/2000/svg" viewBox="0 0 24 24" id="linkedin">
    <path d="M20.447 20.452h-3.554v-5.569c0-1.328-.027-3.037-1.852-3.037-1.853 0-2.136 1.445-2.136 2.939v5.667H9.351V9h3.414v1.561h.046c.477-.9 1.637-1.85 3.37-1.85 3.601 0 4.267 2.37 4.267 5.455v6.286zM5.337 7.433a2.062 2.062 0 0 1-2.063-2.065 2.064 2.064 0 1 1 2.063 2.065zm1.782 13.019H3.555V9h3.564v11.452zM22.225 0H1.771C.792 0 0 .774 0 1.729v20.542C0 23.227.792 24 1.771 24h20.451C23.2 24 24 23.227 24 22.271V1.729C24 .774 23.2 0 22.222 0h.003z"
      fill="#007bb6"></path>
  </symbol>
  <symbol xmlns="http://www.w3.org/2000/svg" viewBox="0 0 24 24" id="twitter">
    <path d="M23.954 4.569a10 10 0 0 1-2.825.775 4.958 4.958 0 0 0 2.163-2.723c-.951.555-2.005.959-3.127 1.184a4.92 4.92 0 0 0-8.384 4.482C7.691 8.094 4.066 6.13 1.64 3.161a4.822 4.822 0 0 0-.666 2.475c0 1.71.87 3.213 2.188 4.096a4.904 4.904 0 0 1-2.228-.616v.061a4.923 4.923 0 0 0 3.946 4.827 4.996 4.996 0 0 1-2.212.085 4.937 4.937 0 0 0 4.604 3.417 9.868 9.868 0 0 1-6.102 2.105c-.39 0-.779-.023-1.17-.067a13.995 13.995 0 0 0 7.557 2.209c9.054 0 13.999-7.496 13.999-13.986 0-.209 0-.42-.015-.63a9.936 9.936 0 0 0 2.46-2.548l-.047-.02z"
      fill="#55aded"></path>
  </symbol>
  <symbol xmlns="http://www.w3.org/2000/svg" viewBox="0 0 58 58" id="whatsapp">
    <path d="M0 58l4.988-14.963A28.35 28.35 0 0 1 1 28.5C1 12.76 13.76 0 29.5 0S58 12.76 58 28.5 45.24 57 29.5 57a28.373 28.373 0 0 1-13.26-3.273L0 58z" fill="#2cb742"></path>
    <path d="M47.683 37.985c-1.316-2.487-6.169-5.331-6.169-5.331-1.098-.626-2.423-.696-3.049.42 0 0-1.577 1.891-1.978 2.163-1.832 1.241-3.529 1.193-5.242-.52l-3.981-3.981-3.981-3.981c-1.713-1.713-1.761-3.41-.52-5.242.272-.401 2.163-1.978 2.163-1.978 1.116-.627 1.046-1.951.42-3.049 0 0-2.844-4.853-5.331-6.169a2.726 2.726 0 0 0-3.203.482l-1.758 1.758c-5.577 5.577-2.831 11.873 2.746 17.45l5.097 5.097 5.097 5.097c5.577 5.577 11.873 8.323 17.45 2.746l1.758-1.758a2.728 2.728 0 0 0 .481-3.204z"
      fill="#fff"></path>
  </symbol>
</svg>